<?xml version="1.0" encoding="utf-8"?>
<!-- Generator: Adobe Illustrator 23.1.1, SVG Export Plug-In . SVG Version: 6.00 Build 0)  -->
<svg version="1.1" id="Layer_1" xmlns="http://www.w3.org/2000/svg" xmlns:xlink="http://www.w3.org/1999/xlink" x="0px" y="0px"
	 viewBox="0 0 256 256" style="enable-background:new 0 0 256 256;" xml:space="preserve">
<style type="text/css">
	.st0{fill:#EEF0F6;}
	.st1{fill:#CDD3E4;}
</style>
<rect class="st0" width="256" height="256"/>
<g>
	<g>
		<g>
			<path class="st1" d="M128,56.5c-20.4,0-37.1,16.7-37.1,37.1s16.7,37.1,37.1,37.1s37.1-16.7,37.1-37.1S148.4,56.5,128,56.5z"/>
		</g>
	</g>
	<g>
		<g>
			<path class="st1" d="M191.7,160.4c-1-2.4-2.3-4.7-3.7-6.8c-7.5-11-19-18.3-31.9-20.1c-1.6-0.2-3.4,0.2-4.7,1.1
				c-6.8,5-14.9,7.6-23.3,7.6s-16.5-2.6-23.3-7.6c-1.3-1-3.1-1.5-4.7-1.1c-13,1.8-24.6,9.1-31.9,20.1c-1.5,2.1-2.8,4.5-3.7,6.8
				c-0.5,1-0.3,2.1,0.2,3.1c1.3,2.3,2.9,4.5,4.4,6.5c2.3,3.1,4.7,5.8,7.5,8.4c2.3,2.3,4.9,4.4,7.5,6.5c12.8,9.6,28.2,14.6,44.1,14.6
				s31.3-5,44.1-14.6c2.6-1.9,5.2-4.2,7.5-6.5c2.6-2.6,5.2-5.4,7.5-8.4c1.6-2.1,3.1-4.2,4.4-6.5
				C192.1,162.5,192.2,161.4,191.7,160.4z"/>
		</g>
	</g>
</g>
</svg>
